<svg width="20" height="21" viewBox="0 0 20 21" fill="none" xmlns="http://www.w3.org/2000/svg">
<path d="M19.8554 9.59244L10.4454 0.182424C10.3279 0.0655827 10.1689 0 10.0031 0C9.8374 0 9.6784 0.0655827 9.56087 0.182424L0.150847 9.59244C0.0480731 9.71245 -0.00563056 9.86683 0.000467855 10.0247C0.00656627 10.1826 0.0720176 10.3324 0.183742 10.4441C0.295467 10.5558 0.445237 10.6213 0.603122 10.6274C0.761007 10.6335 0.915379 10.5798 1.03539 10.477L10 1.51237L18.9646 10.4833C19.0846 10.586 19.239 10.6397 19.3969 10.6336C19.5548 10.6275 19.7045 10.5621 19.8163 10.4504C19.928 10.3386 19.9934 10.1889 19.9995 10.031C20.0056 9.8731 19.9519 9.71873 19.8492 9.59872L19.8554 9.59244Z" fill="#29ABE2"/>
<path d="M16.2735 18.8209H13.1369V12.5476H6.86351V18.8209H3.72684V10.0383L2.47217 11.2929V18.8209C2.47217 19.1537 2.60436 19.4728 2.83965 19.7081C3.07495 19.9434 3.39408 20.0756 3.72684 20.0756H8.11818V13.8023H11.8822V20.0756H16.2735C16.6063 20.0756 16.9254 19.9434 17.1607 19.7081C17.396 19.4728 17.5282 19.1537 17.5282 18.8209V11.1424L16.2735 9.8877V18.8209Z" fill="#29ABE2"/>
</svg>
